<svg xmlns="http://www.w3.org/2000/svg" height="512" viewBox="0 0 60 42" width="512" xmlns:v="https://vecta.io/nano"><path d="M56 6a3.96 3.96 0 0 0-2 .556V4a4 4 0 1 0-8 0v9h-4.336L38 9.306V5.178a3.5 3.5 0 0 0-3.517-3.5c-.616.004-1.221.173-1.749.491a3.5 3.5 0 0 0-6.14-.62 3.48 3.48 0 0 0-5.332 1.459c-.539-.319-1.154-.488-1.78-.491C17.559 2.519 16.001 4.077 16 6v7h-1.96V4a4 4 0 1 0-8 0v2.556a3.96 3.96 0 0 0-2-.556 4 4 0 0 0-4 4v15a4 4 0 0 0 4 4 3.96 3.96 0 0 0 2-.556V31a4 4 0 1 0 8 0v-9H17v.63c-.065 1.829.39 3.64 1.314 5.22l1.161 2.008A3.05 3.05 0 0 1 20 31.37v9A1.63 1.63 0 0 0 21.63 42h12.73A1.64 1.64 0 0 0 36 40.36v-9.09c0-.177.05-.35.143-.5L41.282 22H46v9a4 4 0 1 0 8 0v-2.556A3.96 3.96 0 0 0 56 29a4 4 0 0 0 4-4V10a4 4 0 0 0-4-4zM34.517 3.678c.823.006 1.486.677 1.483 1.5V7.29l-.473-.477a3.06 3.06 0 0 0-2.151-.886h-.01c-.123.004-.245.016-.366.036v-.785a1.5 1.5 0 0 1 1.517-1.5zM28 3.5a1.5 1.5 0 1 1 3 0v3.7a4.95 4.95 0 0 0 0 5.4v.605c-.226.634-.827 1.056-1.5 1.054-.396.004-.777-.15-1.059-.429s-.441-.658-.441-1.053zm-5 .824a1.5 1.5 0 1 1 3 0v8.451c-.001.82-.665 1.485-1.485 1.486h-.03c-.82-.001-1.484-.666-1.485-1.486zM18 6a1.5 1.5 0 1 1 3 0v8.441a1.5 1.5 0 1 1-3 0zM4.04 27a2 2 0 0 1-2-2V10a2 2 0 1 1 4 0v15a2 2 0 0 1-2 2zm8 4a2 2 0 1 1-4 0V4a2 2 0 1 1 4 0zm2-16h2.017a3.5 3.5 0 0 0 6.676.771c.529.317 1.134.486 1.751.49h.03A3.47 3.47 0 0 0 27 15.212c.011.012.019.026.031.038a3.49 3.49 0 0 0 2.469 1.011 3.6 3.6 0 0 0 3.144-1.861l.307.31 1.188 1.2a11.74 11.74 0 0 0-4.487 3.8l-.191.3H14.04zm20.387 14.738c-.281.461-.429.992-.427 1.532V40H22v-8.63c-.028-.901-.305-1.777-.8-2.53l-1.17-2.018A7.76 7.76 0 0 1 19 22.63V22h9.4l-.377.947a1 1 0 1 0 1.894.645 11.03 11.03 0 0 1 .965-2.1 5.84 5.84 0 0 1 .4-.623c1.195-1.702 2.909-2.971 4.885-3.616a1 1 0 0 0 .469-1.672l-2.257-2.277-1.462-1.473-.079-.08a.93.93 0 0 0-.1-.125c-.746-1.038-.731-2.439.036-3.461.153-.167.374-.253.6-.235a1.04 1.04 0 0 1 .733.3l7.293 7.343c.508.505.598 1.293.219 1.9zM42.455 20l.881-1.5a3.54 3.54 0 0 0 .087-3.5H46v5zM52 31a2 2 0 1 1-4 0V4a2 2 0 1 1 4 0zm6-6a2 2 0 1 1-4 0V10a2 2 0 1 1 4 0z"/></svg>